 <svg  version="1.0" xmlns="http://www.w3.org/2000/svg"  width="1536.000000pt" height="1536.000000pt" viewBox="0 0 1536.000000 1536.000000"  preserveAspectRatio="xMidYMid meet">  <g transform="translate(0.000000,1536.000000) scale(0.100000,-0.100000)" fill="#d9d9d9" stroke="none"> <path d="M4172 14910 c-458 -100 -781 -372 -955 -805 -47 -116 -77 -290 -77 -444 0 -539 332 -1004 855 -1199 188 -70 520 -82 735 -26 210 54 406 169 571 334 168 168 264 334 335 582 24 82 40 298 32 418 -29 397 -263 773 -614 984 -32 20 -69 36 -82 36 -54 0 -222 -119 -327 -232 -99 -106 -223 -302 -211 -333 2 -7 33 -28 68 -47 152 -80 270 -253 292 -425 36 -294 -122 -541 -409 -639 -74 -25 -250 -23 -330 4 -192 64 -328 203 -390 395 -10 31 -15 87 -15 161 0 95 4 124 24 180 45 123 111 212 211 285 71 52 183 100 235 101 59 1 68 9 120 119 28 58 62 120 76 138 13 17 24 35 24 38 0 4 29 44 64 89 68 87 184 202 235 232 76 45 10 66 -214 69 -135 3 -187 -1 -253 -15z"/> <path d="M4140 13981 c-76 -24 -110 -44 -146 -83 -44 -48 -67 -87 -81 -138 -56 -206 96 -409 306 -410 146 0 262 84 311 225 24 71 25 116 3 186 -35 111 -117 189 -232 223 -68 20 -92 19 -161 -3z"/> <path d="M2690 12613 c-333 -12 -659 -181 -895 -463 -143 -171 -240 -361 -333 -650 -27 -84 -95 -310 -136 -455 -24 -84 -69 -260 -91 -360 -46 -209 -98 -605 -110 -837 -13 -266 -1 -822 21 -994 l6 -51 -213 -243 c-118 -134 -234 -266 -257 -294 -24 -28 -60 -69 -81 -91 -20 -22 -79 -89 -131 -149 -52 -59 -109 -125 -127 -145 -41 -46 -41 -72 0 -106 17 -15 64 -56 102 -90 110 -98 231 -204 324 -284 47 -40 88 -77 91 -80 3 -4 55 -49 115 -101 61 -52 128 -111 150 -131 22 -21 63 -57 91 -81 28 -23 158 -137 289 -253 131 -115 261 -230 289 -254 28 -24 67 -57 86 -75 19 -17 87 -76 150 -131 63 -55 120 -105 125 -111 6 -6 38 -34 72 -63 44 -38 67 -51 80 -46 10 3 74 72 143 151 69 80 134 155 145 167 11 12 65 74 120 137 55 63 105 120 111 125 6 6 51 57 101 115 136 158 122 150 182 99 28 -23 51 -49 51 -58 0 -16 -20 -39 -395 -466 -115 -132 -244 -278 -285 -325 -41 -47 -91 -103 -112 -125 -21 -22 -38 -43 -38 -47 0 -26 -50 3 -132 75 -52 45 -184 161 -294 256 -109 96 -216 190 -237 208 -20 18 -42 33 -47 33 -14 0 -13 -119 5 -475 8 -165 15 -350 17 -411 l2 -111 -184 -244 c-192 -254 -381 -503 -404 -530 -7 -8 -114 -150 -239 -315 -125 -164 -337 -445 -473 -624 -328 -432 -350 -479 -341 -725 6 -159 12 -189 67 -298 76 -154 216 -280 371 -337 72 -26 193 -50 250 -50 100 0 256 41 345 90 122 68 163 113 429 465 255 338 279 369 286 375 3 3 95 124 205 270 109 146 204 270 209 276 6 6 86 112 179 235 94 123 253 333 355 467 304 398 324 432 358 607 16 86 15 137 -24 903 -10 207 -13 336 -7 341 9 10 53 -28 224 -193 47 -45 168 -160 270 -256 102 -96 206 -195 232 -220 45 -43 49 -51 93 -200 58 -197 75 -255 90 -305 25 -80 128 -434 166 -570 4 -16 15 -52 23 -80 15 -46 28 -92 61 -205 8 -25 26 -88 40 -140 38 -136 83 -290 96 -325 6 -16 15 -46 19 -65 5 -19 16 -60 26 -90 9 -30 22 -75 29 -100 7 -25 43 -148 80 -275 37 -126 71 -243 75 -260 4 -16 12 -43 18 -60 5 -16 18 -57 27 -90 62 -207 85 -260 151 -347 92 -119 231 -213 379 -256 76 -21 277 -23 350 -3 254 71 445 259 512 502 13 47 17 98 17 189 -2 108 -6 140 -33 235 -42 145 -58 200 -77 260 -8 28 -19 66 -23 86 -4 19 -11 41 -15 47 -6 10 -14 37 -46 157 -5 17 -25 86 -45 155 -54 187 -61 210 -79 270 -10 30 -21 71 -26 90 -4 19 -13 49 -19 65 -12 34 -53 176 -101 345 -48 169 -89 311 -101 345 -6 17 -15 46 -19 65 -5 19 -16 59 -25 87 -18 61 -33 112 -69 238 -33 117 -55 189 -74 246 -23 69 -16 76 75 82 131 8 272 41 521 124 l104 34 186 -27 c258 -36 393 -67 517 -120 78 -33 247 -120 295 -153 51 -34 55 -41 92 -136 119 -309 182 -395 350 -479 51 -25 107 -50 123 -55 17 -5 55 -19 85 -31 30 -12 102 -37 160 -56 110 -37 145 -57 220 -125 46 -42 133 -119 230 -204 30 -27 71 -63 90 -80 52 -48 192 -170 290 -255 48 -41 123 -106 166 -145 145 -128 259 -230 264 -235 3 -3 55 -49 115 -102 143 -124 149 -131 174 -208 58 -168 143 -293 244 -357 40 -25 146 -63 177 -63 10 0 48 -7 86 -16 66 -14 75 -20 194 -125 161 -142 206 -164 399 -200 50 -10 73 -21 110 -52 130 -113 413 -179 941 -219 213 -17 827 -17 1040 0 549 42 854 117 955 234 109 128 -39 253 -385 324 -376 76 -1099 105 -1630 64 -487 -37 -683 -75 -847 -162 -69 -37 -107 -35 -190 7 -37 19 -111 52 -164 73 -91 36 -105 46 -260 184 -90 80 -247 218 -349 308 -102 89 -218 192 -259 229 -40 36 -79 69 -86 73 -7 4 -22 36 -35 70 -83 235 -152 352 -280 478 -86 84 -205 169 -325 228 -71 36 -108 53 -230 107 -16 7 -48 20 -70 28 -118 44 -174 71 -201 95 -16 15 -121 108 -234 207 -113 99 -210 184 -216 190 -6 5 -116 102 -243 215 -208 183 -322 275 -451 363 -22 15 -44 35 -47 45 -15 40 -94 151 -140 195 -66 64 -100 84 -178 103 -60 15 -73 15 -168 0 -57 -8 -148 -29 -203 -45 -99 -30 -99 -30 -189 -16 -113 18 -437 64 -532 75 -179 22 -402 73 -450 103 -7 4 -26 36 -44 70 -49 97 -89 146 -234 282 -118 111 -142 129 -201 151 -106 38 -115 45 -379 269 -78 66 -177 150 -221 187 -122 103 -303 256 -364 308 -30 26 -88 75 -128 108 -125 104 -142 121 -142 140 0 18 58 82 74 82 4 0 83 -64 174 -142 92 -78 194 -164 227 -192 33 -28 71 -61 85 -73 14 -12 90 -76 170 -144 201 -170 244 -205 324 -274 123 -106 185 -142 271 -161 179 -39 357 26 462 169 51 70 69 112 84 201 27 161 -33 308 -174 428 -34 29 -75 64 -91 78 -16 14 -61 52 -100 86 -39 33 -129 109 -201 169 -71 61 -141 119 -155 131 -65 57 -333 284 -381 324 -30 25 -67 57 -82 73 -28 26 -28 29 -13 52 26 39 19 57 -41 105 -31 25 -136 113 -233 195 -265 227 -266 228 -290 220 -11 -3 -20 -9 -20 -13 0 -4 -10 -18 -23 -32 -13 -14 -61 -70 -107 -125 -210 -251 -236 -282 -380 -450 -56 -66 -121 -142 -145 -170 -23 -27 -95 -113 -160 -190 -236 -278 -277 -326 -294 -334 -12 -7 -33 7 -90 59 -91 82 -106 43 122 310 12 14 58 68 101 120 44 52 86 101 93 109 8 7 13 19 11 26 -2 6 -49 50 -105 97 -187 156 -231 203 -278 296 -36 71 -65 176 -65 232 0 25 -6 119 -15 210 -17 198 -32 378 -45 560 -5 74 -19 259 -30 410 -11 151 -25 334 -30 405 -17 227 -31 405 -46 570 -22 243 -19 385 9 471 33 100 70 159 151 239 212 209 536 221 773 28 85 -68 173 -211 193 -310 8 -43 34 -342 60 -708 18 -249 31 -421 46 -575 8 -86 14 -191 15 -235 0 -44 4 -89 8 -100 8 -20 8 -20 14 0 11 39 36 161 52 260 23 135 37 213 86 460 23 116 45 230 49 255 12 69 30 159 45 220 7 30 18 78 25 105 105 442 -7 907 -276 1154 -135 124 -319 182 -544 174z m-1599 -4666 c31 -26 59 -77 59 -107 0 -40 -39 -99 -80 -120 -47 -24 -69 -25 -112 -4 -53 25 -73 60 -73 127 0 55 2 61 37 93 33 30 44 34 90 34 40 -1 60 -6 79 -23z m404 -331 c65 -28 96 -123 59 -184 -28 -47 -63 -66 -121 -66 -48 0 -57 3 -90 36 -32 33 -36 41 -36 91 0 106 89 164 188 123z m1744 -184 c204 -179 497 -437 501 -442 4 -4 253 -222 355 -311 16 -15 82 -72 145 -129 230 -206 337 -284 510 -373 121 -63 286 -122 380 -137 36 -5 85 -14 110 -19 202 -38 343 -61 374 -61 43 0 166 -31 166 -41 0 -11 6 -9 -120 -43 -154 -41 -293 -66 -373 -66 -66 0 -76 2 -82 19 -4 15 -24 24 -78 36 -242 54 -452 145 -660 286 -125 85 -150 105 -412 338 -115 102 -244 215 -285 251 -42 36 -93 81 -115 101 -22 20 -63 56 -91 80 -42 36 -172 150 -476 418 -16 13 -28 31 -28 39 0 21 79 112 97 112 8 0 45 -26 82 -58z m3416 -1371 c30 -11 73 -35 96 -54 53 -46 104 -116 93 -127 -5 -5 -37 3 -74 19 -87 37 -236 86 -339 111 -46 11 -86 22 -89 24 -5 6 90 33 133 39 72 10 129 6 180 -12z m542 -644 c80 -72 206 -183 267 -236 28 -24 83 -71 121 -106 39 -34 85 -75 103 -90 69 -58 32 -59 -113 -5 -205 77 -284 129 -342 223 -51 82 -123 234 -123 258 0 22 33 5 87 -44z m1256 -811 c243 -98 443 -235 552 -377 64 -82 154 -253 155 -291 0 -19 -26 0 -156 114 -666 584 -644 564 -644 577 0 15 -4 16 93 -23z m1068 -1237 c63 -55 142 -124 176 -152 73 -61 80 -81 26 -74 -121 16 -238 109 -301 238 -58 119 -46 118 99 -12z m2839 -490 c195 -13 371 -38 377 -55 8 -23 -52 -36 -307 -64 -52 -6 -255 -11 -450 -11 -293 0 -386 3 -531 20 -185 22 -233 33 -227 54 9 24 240 52 553 66 188 9 324 6 585 -10z m-1185 2 c-29 -12 -53 -42 -57 -71 -2 -21 -13 -28 -58 -42 -173 -53 -205 -57 -267 -34 -21 8 -50 17 -64 20 -25 5 -46 32 -34 44 10 10 231 62 309 73 45 6 83 13 85 15 2 2 27 4 55 3 37 0 45 -3 31 -8z m1734 -2 c173 -28 361 -74 361 -87 -1 -20 -22 -34 -71 -48 -89 -26 -118 -27 -180 -10 -33 9 -86 23 -119 33 -49 13 -60 20 -60 37 0 28 -26 65 -54 76 -32 13 41 13 123 -1z m-1429 -173 c109 -11 259 -16 501 -16 293 0 373 3 525 22 98 12 202 22 229 22 48 0 153 -19 164 -29 31 -32 -197 -59 -627 -76 -300 -12 -757 -2 -969 21 -279 30 -300 43 -138 82 50 12 69 12 110 2 28 -7 120 -20 205 -28z"/> <path d="M2520 11923 c-212 -23 -368 -155 -416 -353 -16 -68 -16 -83 0 -284 9 -116 23 -296 31 -401 9 -104 22 -262 30 -350 9 -88 15 -182 15 -210 0 -27 6 -122 15 -210 16 -171 31 -353 45 -555 5 -69 16 -222 25 -340 8 -118 22 -245 31 -283 21 -89 73 -167 165 -247 41 -36 76 -67 79 -70 43 -43 133 -110 148 -110 13 0 43 28 84 76 34 42 104 125 153 183 50 58 140 165 200 236 60 72 115 136 122 143 23 23 14 46 -32 85 -30 26 -46 48 -50 70 -5 30 -34 406 -55 722 -5 77 -14 192 -20 255 -5 63 -17 205 -25 315 -70 890 -76 956 -92 1010 -44 140 -156 252 -298 297 -41 13 -124 24 -155 21z"/> <path d="M5515 7784 c-11 -2 -45 -9 -75 -15 -86 -17 -200 -62 -200 -80 0 -5 11 -25 25 -43 14 -18 42 -66 63 -107 42 -83 59 -92 114 -63 26 15 56 18 148 17 63 0 135 -6 160 -13 25 -7 70 -16 100 -21 124 -19 591 -99 720 -124 47 -9 110 -20 140 -24 30 -5 74 -14 98 -20 68 -19 77 -12 92 77 7 42 15 103 18 134 4 65 12 59 -103 77 -67 11 -210 36 -295 51 -52 9 -107 18 -325 56 -49 9 -118 22 -152 30 -34 8 -74 14 -88 14 -14 0 -54 6 -88 14 -146 34 -295 51 -352 40z"/> </g> </svg> 